# xmcd CD database file
#
# Track frame offsets:
#	150
#	20046
#	41648
#	54460
#	73125
#	86655
#	102898
#	120283
#	136155
#	152222
#	164841
#
# Disc length: 2394 seconds
#
# Revision: 2
# Processed by: cddbd v1.5.2PL0 Copyright (c) Steve Scherf et al.
# Submitted via: CDex 1.79
#
DISCID=9509580b
DTITLE=Various Artist - The Music Inside: A Collaboration Dedicated To Waylon Jennings (Volume II)
DYEAR=2011
DGENRE=Country
TTITLE0=Dierks Bentley - Lonesome, On'ry And Mean
TTITLE1=Hank Williams Jr - Waymore's Blues
TTITLE2=Montgomery Gentry - Good Ol' Boys
TTITLE3=Justin Moore - I Ain't Livin` Long Like This
TTITLE4=Jack Ingram - Bob Wills Is Still The King
TTITLE5=Colt Ford - Only Daddy That'll Walk The Line
TTITLE6=Pat Green - Rainy Day Woman
TTITLE7=Josh Thompson - Love Of The Common People
TTITLE8=Jessi Colter - Mama
TTITLE9=Jewel - Dreaming My Dreams With You
TTITLE10=Wyatt McCubbin - A Long Time Ago
EXTD=YEAR: 2011
EXTT0=
EXTT1=
EXTT2=
EXTT3=
EXTT4=
EXTT5=
EXTT6=
EXTT7=
EXTT8=
EXTT9=
EXTT10=
PLAYORDER=
